<svg xmlns="http://www.w3.org/2000/svg" viewBox="0 0 24 24" fill="none">
  <!-- Background circle -->
  <circle cx="12" cy="12" r="11" fill="#3b82f6" opacity="0.15"/>

  <!-- Open book with blue colors -->
  <path d="M6 7 L6 17 L12 15.5 L12 5.5 Z" fill="#93c5fd"/>
  <path d="M12 5.5 L12 15.5 L18 17 L18 7 Z" fill="#60a5fa"/>

  <!-- Book spine -->
  <rect x="11.7" y="5.5" width="0.6" height="10" fill="#3b82f6"/>

  <!-- Sound waves (right side) -->
  <path d="M19 10.5 Q19.8 10.5 19.8 12 Q19.8 13.5 19 13.5"
        stroke="#60a5fa"
        stroke-width="0.8"
        stroke-linecap="round"
        fill="none"/>

  <path d="M20.5 9.5 Q21.5 9.5 21.5 12 Q21.5 14.5 20.5 14.5"
        stroke="#60a5fa"
        stroke-width="0.7"
        stroke-linecap="round"
        fill="none"
        opacity="0.8"/>

  <!-- Sound waves (left side) -->
  <path d="M5 10.5 Q4.2 10.5 4.2 12 Q4.2 13.5 5 13.5"
        stroke="#93c5fd"
        stroke-width="0.8"
        stroke-linecap="round"
        fill="none"/>

  <path d="M3.5 9.5 Q2.5 9.5 2.5 12 Q2.5 14.5 3.5 14.5"
        stroke="#93c5fd"
        stroke-width="0.7"
        stroke-linecap="round"
        fill="none"
        opacity="0.8"/>
</svg>
